<?xml version="1.0" encoding="UTF-8"?><svg id="Layer_2_copy" xmlns="http://www.w3.org/2000/svg" viewBox="0 0 1080 1080"><defs><style>.cls-1{fill:#9740ed;}</style></defs><path class="cls-1" d="m938.11,405.65h-163.65c-26.63,0-50.48-17.24-58.02-42.77-36.04-122.1-228.29-97.62-228.29-97.62-.18.22-.36.43-.54.65l-34.46,42.83s-.08.09-.1.13c-1.43,1.85-2.84,3.69-4.24,5.52-1.38,1.81-2.75,3.61-4.11,5.41-3.72,4.94-7.38,9.86-10.98,14.77-4.87,6.64-9.62,13.26-14.28,19.85-4.78,6.79-9.46,13.56-14.03,20.3-150.57,222.29-183.01,417.1-186.85,443.71l.27,3.1h394.34c-28.11-58.93-32.47-105.97-29.89-138.17,2.28-28.09,23.74-50.83,51.62-54.99l288.41-48.57c20.53-3.06,38.08-16.38,46.54-35.33l23.79-53.2c17.96-40.22-11.47-85.62-55.53-85.62Zm-365.31,20.71c-21.63,0-39.16-17.53-39.16-39.16s17.53-39.15,39.16-39.15,39.15,17.53,39.15,39.15-17.53,39.16-39.15,39.16Z"/><path class="cls-1" d="m488.04,265.34s-.02.02-.03.03c-.05.03-.11.1-.18.14-.03.04-.06.07-.11.12-.08.06-.16.14-.27.23l-.05.05s-.04.03-.06.06c-.03,0-.06.04-.1.08-.06.05-.12.12-.2.18-.03.03-.08.06-.11.11-.32.27-.69.62-1.11,1-.04.03-.07.06-.12.11-.28.26-.6.54-.93.86-.94.87-2.07,1.92-3.37,3.16-.22.2-.44.41-.67.63-.31.31-.65.62-.98.94-2.68,2.56-5.99,5.76-9.81,9.56l-.11.11c-.23.22-.45.43-.67.67-.22.22-.46.44-.68.68-.48.49-.99,1-1.5,1.51l-.11.11c-.24.22-.47.46-.71.71-.24.23-.49.48-.73.73-.53.54-1.07,1.08-1.61,1.64-2.71,2.75-5.6,5.73-8.67,8.94-.61.65-1.23,1.3-1.85,1.95-.7.75-1.43,1.49-2.15,2.27-1.44,1.53-2.93,3.11-4.44,4.73-3.78,4.07-7.77,8.42-11.93,13.04-1.46,1.62-2.93,3.29-4.44,4.97-2.3,2.59-4.65,5.27-7.04,8.02-.04.03-.08.08-.11.11-1.35,1.54-2.7,3.1-4.06,4.7-1.05,1.22-2.11,2.46-3.18,3.71-.73.86-1.46,1.72-2.19,2.58-1.67,1.97-3.35,3.98-5.05,6.01-.01.05-.05.08-.09.12-1.75,2.08-3.5,4.19-5.26,6.35-.49.58-.98,1.19-1.48,1.79-.12.14-.25.3-.38.45-2.24,2.74-4.49,5.54-6.76,8.38-.91,1.13-1.81,2.25-2.72,3.4-3.27,4.11-6.58,8.33-9.92,12.67-.92,1.17-1.83,2.36-2.75,3.55-1.82,2.39-3.66,4.81-5.51,7.26-.92,1.22-1.84,2.45-2.77,3.7-1.42,1.9-2.85,3.81-4.28,5.75-1.38,1.87-2.76,3.74-4.12,5.65-.96,1.29-1.89,2.59-2.83,3.89-.46.65-.94,1.3-1.41,1.95-.48.67-.96,1.32-1.42,1.99-.6.82-1.19,1.66-1.77,2.49-.97,1.35-1.94,2.72-2.89,4.08-1.29,1.83-2.58,3.67-3.86,5.51-.96,1.37-1.91,2.75-2.86,4.13-1.51,2.17-3.02,4.38-4.51,6.6-1.51,2.21-3.02,4.45-4.53,6.7-.85,1.29-1.71,2.58-2.54,3.86-.01.05-.04.1-.09.13-.89,1.33-1.78,2.67-2.65,4.02-.97,1.46-1.92,2.92-2.88,4.38-.89,1.38-1.79,2.76-2.68,4.16-.9,1.4-1.81,2.81-2.7,4.22-.13.18-.24.37-.35.56-1.71,2.68-3.43,5.41-5.14,8.16-1.4,2.24-2.8,4.49-4.19,6.76-.8,1.31-1.61,2.62-2.4,3.94-1.19,1.95-2.38,3.94-3.57,5.92-1.2,1.99-2.39,3.99-3.56,5.99-1.37,2.32-2.73,4.64-4.1,6.99-1.08,1.85-2.16,3.73-3.22,5.6-.84,1.48-1.68,2.95-2.53,4.43-.95,1.68-1.9,3.38-2.85,5.08-.64,1.11-1.26,2.24-1.88,3.37-1.12,2.01-2.24,4.05-3.35,6.1-1.41,2.58-2.82,5.2-4.22,7.84-1.06,1.95-2.11,3.94-3.14,5.92-1.18,2.24-2.35,4.48-3.53,6.75-.86,1.65-1.7,3.3-2.54,4.95-.05.08-.08.16-.13.24-1.35,2.64-2.68,5.3-4.01,7.99-1.35,2.68-2.67,5.36-3.99,8.08-.89,1.79-1.76,3.6-2.62,5.41-2.13,4.42-4.22,8.86-6.29,13.34-.06.16-.14.34-.22.49-.78,1.66-1.54,3.32-2.29,4.99-.49,1.06-.96,2.14-1.46,3.22-.84,1.86-1.68,3.73-2.51,5.62-1.66,3.77-3.31,7.56-4.95,11.39-.67,1.52-1.32,3.06-1.97,4.62-.09.24-.2.46-.3.7-.13.31-.27.63-.4.97-1.09,2.62-2.19,5.25-3.27,7.9-.12.27-.24.54-.33.83-1.22,2.98-2.43,5.98-3.62,9-.03.08-.06.14-.1.22-.03.07-.04.15-.08.21-.58,1.49-1.19,3-1.76,4.51-.97,2.48-1.92,4.95-2.87,7.46-.05.13-.1.24-.13.37-.52,1.33-1.03,2.68-1.52,4.03-.8,2.14-1.59,4.27-2.39,6.43-.47,1.29-.93,2.59-1.41,3.89-.92,2.57-1.84,5.16-2.75,7.75-.71,2.03-1.42,4.06-2.11,6.11-.73,2.13-1.46,4.27-2.17,6.42-.03.11-.08.22-.11.33-.62,1.84-1.24,3.7-1.83,5.56-.68,2.06-1.35,4.13-2,6.21-.67,2.08-1.32,4.16-1.97,6.24-.51,1.63-1.01,3.27-1.51,4.92h0c-.74,2.43-1.46,4.84-2.17,7.25-.61,2.03-1.18,4.09-1.79,6.13-.64-1.16-5-8.27-16.51-11.98-.73-.25-1.48-.47-2.27-.67-.04-.01-.08-.02-.11-.03-.52-.13-1.05-.26-1.59-.37-.24-.06-.49-.12-.74-.16-.33-.07-.66-.14-1-.19-.2-.04-.41-.08-.62-.11-.39-.07-.79-.13-1.2-.19-.62-.09-1.26-.17-1.91-.24-.96-.1-1.94-.18-2.96-.24-3.51-.18-7.4-.07-11.72.43-.56.06-1.12.13-1.7.21-.22.03-.45.06-.67.09-.25.03-.5.07-.75.11-.24.04-.5.08-.75.12-.51.08-1.03.17-1.55.26-1.53.27-3.11.59-4.74.96,0,.01-.02,0-.02,0-1.62.36-3.3.78-5.02,1.26h-.02c-1.15.31-2.32.64-3.52,1.01h-.02c-1.19.36-2.41.75-3.65,1.17-.62.2-1.26.41-1.89.64-.63.22-1.28.45-1.93.68-.54.2-1.09.41-1.65.61-.38.13-.76.27-1.14.43-.38.15-.77.3-1.16.44-.67.26-1.35.53-2.03.8-4.77,1.92-9.84,4.19-15.21,6.85l-.02.03s-.02.01-.03.02c0,0,0,.02-.03.02h.02c-13.94,7.14-27.03-.91-25.69-20.71,2.56-37.91,134.26-408.04,396.39-440.07Z"/></svg>